<?xml version="1.0" encoding="UTF-8" standalone="no"?>
<svg
   xmlns:dc="http://purl.org/dc/elements/1.1/"
   xmlns:cc="http://creativecommons.org/ns#"
   xmlns:rdf="http://www.w3.org/1999/02/22-rdf-syntax-ns#"
   xmlns:svg="http://www.w3.org/2000/svg"
   xmlns="http://www.w3.org/2000/svg"
   viewBox="0 0 494.66266 291.98532"
   height="291.98532"
   width="494.66266"
   xml:space="preserve"
   id="svg2"
   version="1.1"><metadata
     id="metadata8"><rdf:RDF><cc:Work
         rdf:about=""><dc:format>image/svg+xml</dc:format><dc:type
           rdf:resource="http://purl.org/dc/dcmitype/StillImage" /></cc:Work></rdf:RDF></metadata><defs
     id="defs6"><clipPath
       id="clipPath20"
       clipPathUnits="userSpaceOnUse"><path
         id="path18"
         d="M 0,218.989 H 370.997 V 0 H 0 Z" /></clipPath></defs><g
     transform="matrix(1.3333333,0,0,-1.3333333,0,291.98533)"
     id="g10"><path
       id="path12"
       style="fill:#27b399;fill-opacity:1;fill-rule:evenodd;stroke:none"
       d="m 4.227,211.738 h 362.64 V 77.338 H 4.227 Z" /><g
       id="g14"><g
         clip-path="url(#clipPath20)"
         id="g16"><g
           transform="translate(333.9365,11.9585)"
           id="g22"><path
             id="path24"
             style="fill:#57595b;fill-opacity:1;fill-rule:evenodd;stroke:none"
             d="M 0,0 C 0.63,0 1.16,0.22 1.59,0.67 2.04,1.1 2.26,1.62 2.26,2.25 V 16.62 L 8.96,23.7 31.19,0.3 c 0.45,-0.45 0.99,-0.68 1.62,-0.68 0.6,0 1.11,0.2 1.54,0.6 0.45,0.43 0.69,0.95 0.71,1.58 0,0.63 -0.21,1.15 -0.63,1.58 L 12.04,26.93 33.67,49.65 c 0.43,0.45 0.63,0.99 0.61,1.62 0,0.6 -0.23,1.11 -0.68,1.54 -0.45,0.43 -0.99,0.64 -1.62,0.64 -0.6,-0.02 -1.12,-0.27 -1.54,-0.72 L 2.26,23.09 V 51.42 C 2.26,52.02 2.04,52.55 1.59,53 1.16,53.43 0.63,53.64 0,53.64 -0.6,53.64 -1.12,53.43 -1.57,53 -2,52.55 -2.22,52.02 -2.22,51.42 V 2.25 C -2.22,1.62 -2,1.1 -1.57,0.67 -1.12,0.22 -0.6,0 0,0 m -16.64,38.97 c 0,-2.74 -1.08,-5.08 -3.23,-7.04 -2.14,-1.95 -4.73,-2.96 -7.79,-3.01 h -15.05 v 20.13 h 14.79 c 3.1,0 5.76,-0.99 7.97,-2.97 2.21,-1.96 3.31,-4.33 3.31,-7.11 m -11.28,14.52 h -17.04 c -0.61,0 -1.13,-0.22 -1.58,-0.64 -0.43,-0.43 -0.64,-0.95 -0.64,-1.58 V 2.22 c 0,-0.61 0.21,-1.13 0.64,-1.58 0.45,-0.43 0.97,-0.64 1.58,-0.64 0.62,0 1.15,0.21 1.58,0.64 0.45,0.45 0.67,0.97 0.67,1.58 v 22.23 h 12.57 L -18.52,0.86 c 0.4,-0.83 1.07,-1.24 2,-1.24 0.34,0 0.67,0.08 0.97,0.23 0.55,0.27 0.93,0.7 1.13,1.27 0.2,0.58 0.16,1.14 -0.11,1.7 l -10.72,21.85 c 3.73,0.58 6.83,2.21 9.29,4.89 2.5,2.71 3.76,5.85 3.76,9.41 0,4.01 -1.53,7.43 -4.59,10.27 -3.08,2.83 -6.8,4.25 -11.13,4.25 m -57.73,-4.4 c 6.19,0 11.48,-2.21 15.87,-6.62 4.41,-4.39 6.62,-9.69 6.62,-15.88 0,-6.2 -2.21,-11.49 -6.62,-15.87 -4.39,-4.39 -9.68,-6.58 -15.87,-6.58 -6.2,0 -11.49,2.19 -15.88,6.58 -4.39,4.38 -6.58,9.67 -6.58,15.87 0,6.19 2.19,11.49 6.58,15.88 4.39,4.41 9.68,6.62 15.88,6.62 m 0,-49.47 c 7.44,0 13.8,2.63 19.07,7.9 5.26,5.27 7.9,11.62 7.9,19.07 0,7.45 -2.64,13.81 -7.9,19.07 -5.27,5.27 -11.63,7.9 -19.07,7.9 -7.45,0 -13.81,-2.63 -19.07,-7.9 -5.27,-5.26 -7.9,-11.62 -7.9,-19.07 0,-7.45 2.63,-13.8 7.9,-19.07 5.26,-5.27 11.62,-7.9 19.07,-7.9 m -69.02,53.94 c -0.04,-0.02 -0.04,-0.02 0.02,-0.01 0.05,0.02 0.04,0.03 -0.02,0.01 m 0.07,0 -0.05,-0.01 c -0.02,-0.01 -0.07,-0.03 -0.13,-0.06 -0.08,-0.03 -0.14,-0.05 -0.19,-0.08 -0.08,-0.02 -0.15,-0.06 -0.23,-0.11 -0.05,-0.05 -0.1,-0.1 -0.15,-0.15 L -155.5,53 c -0.05,-0.03 -0.1,-0.08 -0.15,-0.15 -0.05,-0.05 -0.1,-0.12 -0.15,-0.19 -0.03,-0.05 -0.06,-0.1 -0.11,-0.15 -0.03,-0.07 -0.05,-0.15 -0.08,-0.22 -0.07,-0.16 -0.1,-0.19 -0.07,-0.12 l -15.28,-43.48 -15.23,43.48 c -0.23,0.58 -0.62,1 -1.16,1.28 -0.56,0.28 -1.14,0.31 -1.74,0.11 -0.57,-0.2 -1,-0.58 -1.28,-1.16 -0.27,-0.56 -0.3,-1.13 -0.07,-1.73 l 17.38,-49.55 c 0,0.03 0.02,-0.02 0.07,-0.15 0.02,-0.05 0.04,-0.09 0.04,-0.11 0.05,-0.1 0.1,-0.19 0.15,-0.26 l 0.04,-0.04 c 0,-0.02 0.01,-0.04 0.04,-0.04 0.07,-0.1 0.16,-0.2 0.26,-0.3 l 0.08,-0.08 c 0.07,-0.05 0.15,-0.1 0.22,-0.14 0.02,-0.03 0.06,-0.06 0.11,-0.08 0.1,-0.05 0.2,-0.1 0.3,-0.15 h 0.04 l 0.04,-0.04 c 0.08,-0.02 0.16,-0.05 0.26,-0.07 h 0.12 c 0.12,-0.03 0.23,-0.04 0.33,-0.04 0.13,0 0.25,0.01 0.38,0.04 h 0.12 c 0.09,0.02 0.17,0.05 0.22,0.07 0.05,0.03 0.06,0.03 0.04,0 l 0.04,0.04 h 0.03 c 0.1,0.05 0.2,0.1 0.3,0.15 0.02,0.02 0.06,0.05 0.11,0.08 0.08,0.04 0.16,0.09 0.23,0.14 0.06,0.07 0.09,0.1 0.08,0.09 0.1,0.1 0.19,0.19 0.26,0.29 l 0.04,0.04 V 0.6 c 0.07,0.07 0.13,0.16 0.19,0.26 0,0.02 0.01,0.06 0.03,0.11 0.05,0.13 0.08,0.18 0.08,0.15 l 15.27,43.49 15.27,-43.49 c 0,0.03 0.01,-0.02 0.04,-0.15 0.05,-0.05 0.08,-0.09 0.08,-0.11 0.04,-0.1 0.1,-0.19 0.15,-0.26 0,-0.03 0.01,-0.04 0.04,-0.04 V 0.52 c 0.09,-0.1 0.2,-0.2 0.3,-0.3 -0.03,0.03 0,0 0.07,-0.08 0.08,-0.05 0.15,-0.1 0.23,-0.14 0.02,-0.03 0.06,-0.06 0.11,-0.08 0.07,-0.05 0.17,-0.1 0.3,-0.15 0.02,0 0.04,-0.01 0.04,-0.04 0,0.03 0.01,0.03 0.03,0 0.08,-0.02 0.17,-0.05 0.27,-0.07 h 0.11 c 0.13,-0.03 0.24,-0.04 0.34,-0.04 0.12,0 0.25,0.01 0.38,0.04 h 0.11 c 0.1,0.02 0.17,0.05 0.23,0.07 0.02,0.03 0.03,0.03 0.03,0 0,0.03 0.01,0.04 0.04,0.04 h 0.04 c 0.1,0.05 0.19,0.1 0.26,0.15 0.05,0.02 0.09,0.05 0.11,0.08 0.1,0.04 0.19,0.09 0.27,0.14 0.07,0.08 0.09,0.11 0.07,0.08 0.1,0.1 0.19,0.2 0.27,0.3 l 0.04,0.04 V 0.6 c 0.07,0.07 0.13,0.16 0.18,0.26 0,0.02 0.01,0.06 0.04,0.11 0.05,0.13 0.07,0.18 0.07,0.15 l 17.38,49.55 c 0.2,0.6 0.18,1.17 -0.07,1.73 -0.28,0.58 -0.72,0.96 -1.32,1.16 l -0.87,0.3 -0.82,-0.41 c -0.58,-0.28 -0.97,-0.7 -1.17,-1.28 l -15.27,-43.48 -15.27,43.48 c 0.05,-0.07 0.03,-0.04 -0.04,0.12 -0.03,0.07 -0.06,0.15 -0.11,0.22 -0.03,0.05 -0.07,0.1 -0.12,0.15 -0.02,0.07 -0.06,0.14 -0.11,0.19 -0.05,0.05 -0.1,0.1 -0.15,0.15 -0.05,0.05 -0.1,0.1 -0.15,0.15 -0.07,0.05 -0.14,0.1 -0.19,0.15 -0.05,0.02 -0.11,0.06 -0.19,0.11 -0.05,0.03 -0.11,0.05 -0.18,0.08 -0.03,0.02 -0.06,0.04 -0.08,0.04 l -0.04,0.03 c 0.03,-0.02 -0.01,-0.02 -0.11,0 -0.05,0.03 -0.13,0.05 -0.22,0.08 -0.11,0 -0.17,0.01 -0.19,0.04 h -0.23 -0.23 c -0.05,-0.03 -0.12,-0.04 -0.22,-0.04 -0.08,-0.03 -0.15,-0.05 -0.23,-0.08 m -62.19,-4.47 V 1.88 c 0,-0.63 0.21,-1.17 0.64,-1.62 0.45,-0.43 0.98,-0.64 1.58,-0.64 0.62,0 1.16,0.21 1.62,0.64 0.42,0.45 0.64,0.99 0.64,1.62 v 47.21 h 14.86 c 0.62,0 1.15,0.21 1.58,0.64 0.45,0.42 0.67,0.95 0.67,1.58 0,0.62 -0.22,1.15 -0.67,1.57 -0.43,0.46 -0.96,0.68 -1.58,0.68 h -34.2 c -0.63,0 -1.17,-0.22 -1.62,-0.68 -0.42,-0.42 -0.64,-0.95 -0.64,-1.57 0,-0.63 0.22,-1.16 0.64,-1.58 0.45,-0.43 0.99,-0.64 1.62,-0.64 z m -53.06,-49.47 h 29.87 c 0.63,0 1.15,0.23 1.58,0.68 0.45,0.42 0.68,0.95 0.68,1.58 0,0.62 -0.23,1.15 -0.68,1.58 -0.43,0.45 -0.95,0.68 -1.58,0.68 h -27.61 v 20.23 h 20.65 c 0.63,0 1.16,0.23 1.59,0.68 0.45,0.43 0.67,0.95 0.67,1.58 0,0.62 -0.22,1.15 -0.67,1.58 -0.43,0.45 -0.96,0.68 -1.59,0.68 h -20.65 v 20.23 l 27.61,-0.07 c 0.63,0 1.15,0.21 1.58,0.64 0.45,0.45 0.68,0.99 0.68,1.62 0,0.6 -0.23,1.13 -0.68,1.57 -0.43,0.46 -0.95,0.68 -1.58,0.68 l -29.87,0.08 c -0.6,0.02 -1.12,-0.2 -1.57,-0.68 -0.46,-0.43 -0.68,-0.95 -0.68,-1.58 V 1.88 c 0,-0.63 0.22,-1.16 0.68,-1.58 0.42,-0.45 0.94,-0.68 1.57,-0.68 m -18.9,0.79 0.11,-0.11 0.12,-0.12 c 0.07,-0.05 0.12,-0.09 0.15,-0.11 0.07,-0.05 0.16,-0.1 0.26,-0.15 0.07,-0.05 0.12,-0.09 0.15,-0.11 0.07,-0.03 0.18,-0.07 0.3,-0.11 l 0.15,-0.04 c 0.15,-0.03 0.3,-0.04 0.45,-0.04 0.13,0 0.27,0.01 0.42,0.04 0.02,0 0.07,0.01 0.15,0.04 0.1,0.02 0.19,0.04 0.26,0.07 0.05,0.02 0.1,0.05 0.15,0.08 0.08,0.02 0.15,0.06 0.23,0.11 0.05,0.02 0.08,0.05 0.11,0.07 0.06,0.05 0.09,0.07 0.1,0.08 -0.05,-0.04 -0.06,-0.04 -0.03,0 0.02,0.01 0.03,0.01 0.03,0 l 0.09,0.07 0.15,0.16 c 0.05,0.05 0.1,0.11 0.15,0.18 0.05,0.08 0.09,0.14 0.11,0.19 0.05,0.05 0.09,0.11 0.12,0.19 0.02,0.07 0.04,0.13 0.07,0.19 0.02,0.05 0.05,0.12 0.08,0.22 0.02,0.08 0.03,0.14 0.03,0.19 0.03,0.08 0.04,0.15 0.04,0.23 v 0.15 49.54 c 0,0.63 -0.21,1.15 -0.64,1.58 -0.45,0.45 -0.99,0.68 -1.62,0.68 -0.6,0 -1.13,-0.23 -1.58,-0.68 -0.42,-0.43 -0.64,-0.95 -0.64,-1.58 V 8.46 l -34.45,44.35 c -0.65,0.85 -1.49,1.1 -2.52,0.75 -1.01,-0.35 -1.51,-1.06 -1.51,-2.14 V 1.88 c 0,-0.63 0.23,-1.16 0.68,-1.58 0.42,-0.45 0.95,-0.68 1.58,-0.68 0.62,0 1.15,0.23 1.58,0.68 0.45,0.42 0.68,0.95 0.68,1.58 v 42.96 l 34.42,-44.35 0.03,-0.04 z" /></g><g
           transform="translate(354.1465,205.4385)"
           id="g26"><path
             id="path28"
             style="fill:#ffffff;fill-opacity:1;fill-rule:evenodd;stroke:none"
             d="m 0,0 c -2.13,0.54 -3.19,0.81 -3.19,0.81 l -3.02,-1.14 c -2.02,-0.82 -3.58,-2.16 -4.67,-4.01 l -40.24,-66.5 -40.25,66.5 c -1.14,1.85 -2.72,3.19 -4.74,4.01 -2.02,0.76 -4.06,0.87 -6.13,0.33 -2.13,-0.6 -3.85,-1.78 -5.16,-3.52 -1.31,-1.69 -1.96,-3.63 -1.96,-5.81 v -98.32 c 0,-2.67 0.95,-4.94 2.86,-6.79 1.86,-1.91 4.12,-2.86 6.79,-2.86 2.67,0 4.96,0.95 6.87,2.86 1.91,1.85 2.87,4.12 2.87,6.79 v 63.64 l 30.42,-50.38 c 0.06,0 0.09,-0.03 0.09,-0.09 v -0.08 c 0.05,0 0.08,-0.03 0.08,-0.08 l 0.08,-0.08 c 0.16,-0.28 0.3,-0.47 0.41,-0.57 0,-0.06 0.05,-0.17 0.16,-0.33 0.22,-0.17 0.36,-0.3 0.41,-0.41 0.06,-0.06 0.16,-0.17 0.33,-0.33 l 0.33,-0.33 c 0.1,-0.11 0.27,-0.24 0.49,-0.4 0.16,-0.17 0.24,-0.23 0.24,-0.17 0.17,-0.17 0.36,-0.3 0.57,-0.41 l 0.09,-0.08 0.08,-0.08 h 0.08 c 0.16,-0.11 0.38,-0.22 0.65,-0.33 0.17,-0.11 0.22,-0.16 0.17,-0.16 0.1,-0.06 0.3,-0.14 0.57,-0.25 0.28,-0.09 0.4,-0.13 0.36,-0.1 -0.05,0.01 -0.06,0.02 -0.03,0.02 l 0.03,-0.02 c 0.06,-0.02 0.15,-0.04 0.3,-0.06 0.7,-0.22 1.41,-0.36 2.12,-0.41 0.33,-0.05 0.44,-0.08 0.33,-0.08 h 0.16 c 1.36,-0.06 2.67,0.19 3.93,0.73 0.27,0.11 0.43,0.17 0.49,0.17 -0.06,0 0.03,0.05 0.24,0.16 0.27,0.11 0.47,0.22 0.58,0.33 h 0.08 l 0.08,0.08 c 0.06,0 0.08,0.02 0.08,0.08 0.22,0.11 0.41,0.22 0.58,0.33 l 0.24,0.25 c 0.22,0.16 0.38,0.29 0.49,0.4 0.05,0.06 0.17,0.17 0.33,0.33 l 0.33,0.33 0.41,0.41 0.24,0.33 c 0.05,0.1 0.16,0.29 0.33,0.57 l 0.08,0.08 0.08,0.08 0.08,0.08 v 0.09 l 30.51,50.38 v -63.64 c 0,-2.67 0.93,-4.94 2.79,-6.79 1.9,-1.91 4.19,-2.86 6.87,-2.86 2.67,0 4.96,0.95 6.87,2.86 1.85,1.85 2.78,4.12 2.78,6.79 v 98.32 c 0,2.18 -0.66,4.12 -1.97,5.81 C 3.76,-1.78 2.07,-0.6 0,0 m -172.21,-117.3 c 15.1,0 28.24,5.07 39.43,15.21 1.96,1.8 2.99,4.04 3.1,6.71 0.11,2.67 -0.73,4.99 -2.53,6.95 -1.8,2.02 -4.04,3.08 -6.71,3.2 -2.67,0.1 -4.99,-0.74 -6.95,-2.54 -7.42,-6.76 -16.2,-10.14 -26.34,-10.14 -10.74,0 -19.93,3.81 -27.57,11.45 -7.63,7.63 -11.45,16.82 -11.45,27.56 0,10.8 3.82,20.02 11.45,27.65 7.64,7.64 16.83,11.45 27.57,11.45 8.89,0 16.82,-2.7 23.8,-8.1 2.13,-1.58 4.53,-2.2 7.2,-1.88 2.62,0.33 4.74,1.55 6.38,3.68 1.64,2.13 2.29,4.53 1.96,7.2 -0.38,2.62 -1.61,4.74 -3.68,6.38 -10.52,8.07 -22.41,12.11 -35.66,12.11 -16.09,0 -29.85,-5.73 -41.31,-17.18 -11.4,-11.4 -17.09,-25.17 -17.09,-41.31 0,-16.08 5.69,-29.85 17.09,-41.3 11.46,-11.4 25.22,-17.1 41.31,-17.1 m -151.28,19.47 v 78.44 h 15.06 c 10.79,0 20.01,-3.84 27.64,-11.53 7.64,-7.64 11.45,-16.83 11.45,-27.57 0,-10.8 -3.81,-20.01 -11.45,-27.64 -7.63,-7.64 -16.87,-11.46 -27.73,-11.46 z m -9.73,-19.47 h 0.16 l 24.63,0.33 c 16.14,0 29.93,5.72 41.39,17.18 11.39,11.39 17.09,25.16 17.09,41.3 0,16.09 -5.7,29.86 -17.09,41.31 -11.46,11.39 -25.25,17.09 -41.39,17.09 h -24.79 c -2.67,0 -4.94,-0.92 -6.79,-2.77 -1.91,-1.92 -2.86,-4.21 -2.86,-6.88 v -97.91 c 0,-2.67 0.95,-4.96 2.86,-6.87 1.91,-1.85 4.18,-2.78 6.79,-2.78" /></g></g></g></g></svg>