<svg id="Layer_1" data-name="Layer 1" xmlns="http://www.w3.org/2000/svg" viewBox="0 0 512 512"><defs><style>.cls-1{fill:#1f1a14;}.cls-2{fill:#fbf7f0;}</style></defs><rect class="cls-1" width="512" height="512" rx="146.29"/><path class="cls-2" d="M41,339.27V172.73h63.76q18,0,30,5.65t18,15.41a41.54,41.54,0,0,1,6,22.12q0,10.17-3.9,17.36a32.69,32.69,0,0,1-10.49,11.67,44.41,44.41,0,0,1-14.72,6.42V253a36.65,36.65,0,0,1,17,5.41A38.22,38.22,0,0,1,160,272.26q5.2,9,5.21,21.64A43.76,43.76,0,0,1,159,317.11q-6.27,10.29-18.87,16.23t-31.71,5.93Zm30.17-95.71H101A33.1,33.1,0,0,0,115,240.67a23.5,23.5,0,0,0,9.88-8.21,21.91,21.91,0,0,0,3.62-12.65,20.73,20.73,0,0,0-6.79-15.94q-6.78-6.26-20.12-6.26H71.13Zm0,70.5h32.45q16.42,0,23.7-6.3a20.48,20.48,0,0,0,7.28-16.22,25.11,25.11,0,0,0-3.66-13.38,25.51,25.51,0,0,0-10.41-9.43,34.87,34.87,0,0,0-16.1-3.46H71.13Z"/><path class="cls-2" d="M338,256q0,26.92-10,46.07t-27.33,29.32q-17.28,10.16-39.15,10.16t-39.16-10.21Q205.05,321.14,195,302t-10-46q0-26.91,10-46.07t27.32-29.31q17.28-10.17,39.16-10.17t39.15,10.17q17.28,10.15,27.33,29.31T338,256Zm-30.33,0q0-18.94-5.9-32t-16.3-19.76a46.24,46.24,0,0,0-48,0q-10.41,6.7-16.31,19.76t-5.89,32q0,18.94,5.89,32t16.31,19.76a46.24,46.24,0,0,0,48,0q10.41-6.7,16.3-19.76T307.68,256Z"/><path class="cls-2" d="M364.35,339.27V172.73H471V198H394.52v45.21h69.2v25.29h-69.2v70.75Z"/></svg>