<svg id="Layer_1" data-name="Layer 1" xmlns="http://www.w3.org/2000/svg" viewBox="0 0 1000 1000"><defs><style>.cls-1{fill:#1f1a14;}.cls-2{fill:#fbf7f0;}</style></defs><rect class="cls-1" width="1000" height="1000" rx="285.71"/><path class="cls-2" d="M142.27,638.53V361.47H248.33q30,0,50,9.4t29.9,25.64q9.94,16.23,9.94,36.8,0,16.9-6.49,28.88a54.5,54.5,0,0,1-17.45,19.41,74,74,0,0,1-24.49,10.69V495a61,61,0,0,1,28.34,9,63.77,63.77,0,0,1,22.26,23.07Q349,541.94,349,563q0,21.51-10.41,38.62t-31.39,27q-21,9.89-52.76,9.88ZM192.46,479.3h49.65a55.25,55.25,0,0,0,23.4-4.8A39.23,39.23,0,0,0,282,460.84q6-8.86,6-21,0-16.1-11.29-26.51t-33.49-10.42H192.46Zm0,117.29h54q27.33,0,39.43-10.48t12.11-27a41.78,41.78,0,0,0-6.09-22.26,42.5,42.5,0,0,0-17.31-15.69q-11.24-5.74-26.79-5.75H192.46Z"/><path class="cls-2" d="M636.43,500q0,44.78-16.71,76.64t-45.45,48.77q-28.75,16.9-65.14,16.91t-65.14-17q-28.74-17-45.45-48.84T381.83,500q0-44.78,16.71-76.64T444,374.59q28.74-16.9,65.14-16.91t65.14,16.91q28.74,16.92,45.45,48.77T636.43,500ZM586,500q0-31.51-9.81-53.23T549,413.89q-17.32-11.16-39.91-11.16t-39.91,11.16q-17.31,11.16-27.12,32.88T432.29,500q0,31.53,9.81,53.23t27.12,32.88q17.32,11.16,39.91,11.16T549,586.11q17.31-11.16,27.12-32.88T586,500Z"/><path class="cls-2" d="M680.24,638.53V361.47H857.73v42.07H730.43v75.22H845.55v42.07H730.43v117.7Z"/></svg>