<svg id="Layer_1" data-name="Layer 1" xmlns="http://www.w3.org/2000/svg" viewBox="0 0 512 512"><defs><style>.cls-1{fill:#1f1a14;}.cls-2{fill:#fbf7f0;}</style></defs><rect class="cls-1" width="512" height="512" rx="134.14"/><path class="cls-2" d="M165.69,274.33q-5.31-9-17.46-14.35c-8.13-3.53-19-5.56-32.67-6a105.51,105.51,0,0,0,18.32-2.53,54,54,0,0,0,15.9-6.26A32.24,32.24,0,0,0,161,233.81c2.84-4.74,4.24-10.57,4.24-17.46a43,43,0,0,0-5.06-20.76q-5.07-9.39-16.06-14.82t-28.77-5.4H36V336.9h78.36c11.39,0,21.35-1.48,29.86-4.35s15.13-7.39,19.79-13.5,7-14.23,7-24.34A39.54,39.54,0,0,0,165.69,274.33ZM106.15,206a39.41,39.41,0,0,1,12.06,1.67,15.41,15.41,0,0,1,7.81,5.45q2.8,3.74,2.8,10.5c0,4.16-.93,7.5-2.8,10a15.1,15.1,0,0,1-7.7,5.41,36.4,36.4,0,0,1-11.7,1.71H70.45V206Zm23.14,95.7c-4.16,3.07-10.85,4.59-20,4.59H70.45V268.42h39.32a41.13,41.13,0,0,1,14,2.06,17.88,17.88,0,0,1,8.83,6.15,17.58,17.58,0,0,1,3,10.58C135.55,293.82,133.45,298.64,129.29,301.67Z"/><path class="cls-2" d="M261.9,339.06A82.28,82.28,0,0,1,229,332.67,77.66,77.66,0,0,1,203.31,315a79.56,79.56,0,0,1-16.75-26.52,89,89,0,0,1-5.91-32.55,88.06,88.06,0,0,1,5.91-32.43,80,80,0,0,1,16.75-26.4A77.81,77.81,0,0,1,229,179.33a82.45,82.45,0,0,1,32.91-6.39,83.39,83.39,0,0,1,33,6.39,76.29,76.29,0,0,1,25.68,17.72,81.12,81.12,0,0,1,16.63,26.4,88.06,88.06,0,0,1,5.91,32.43,89,89,0,0,1-5.91,32.55A80.71,80.71,0,0,1,320.61,315a76.15,76.15,0,0,1-25.68,17.72A83.22,83.22,0,0,1,261.9,339.06Zm0-33.51q14.94,0,25-6.39a39,39,0,0,0,14.95-17.72,68.88,68.88,0,0,0,0-51.23,39.1,39.1,0,0,0-14.95-17.61q-10-6.37-25-6.38-14.71,0-24.71,6.38a39.72,39.72,0,0,0-15.07,17.61q-5.07,11.21-5.06,25.67a61.94,61.94,0,0,0,5.06,25.56,39.63,39.63,0,0,0,15.07,17.72Q247.18,305.55,261.9,305.55Z"/><polygon class="cls-2" points="393.52 205.97 393.52 245.99 462.23 245.99 462.23 276.63 393.52 276.63 393.52 336.9 359.07 336.9 359.07 175.37 476 175.37 476 205.97 393.52 205.97"/></svg>