<svg id="Layer_1" data-name="Layer 1" xmlns="http://www.w3.org/2000/svg" viewBox="0 0 1000 1000"><defs><style>.cls-1{fill:#1f1a14;}.cls-2{fill:#fbf7f0;}</style></defs><rect class="cls-1" width="1000" height="1000" rx="262"/><path class="cls-2" d="M363.38,527.73q-8-13.66-26.41-21.7t-49.41-9.12a160.37,160.37,0,0,0,27.71-3.82,82,82,0,0,0,24.05-9.47,48.93,48.93,0,0,0,16.95-17.18q6.44-10.77,6.41-26.41A65.09,65.09,0,0,0,355,408.62q-7.68-14.22-24.29-22.42T287.21,378h-120V622.38H285.74c17.23,0,32.29-2.24,45.17-6.59s22.88-11.17,29.94-20.41,10.59-21.53,10.59-36.82A59.71,59.71,0,0,0,363.38,527.73ZM273.32,424.32a59.54,59.54,0,0,1,18.24,2.53,23.3,23.3,0,0,1,11.82,8.24q4.25,5.64,4.24,15.88c0,6.29-1.41,11.35-4.24,15.12a22.89,22.89,0,0,1-11.64,8.17A54.75,54.75,0,0,1,274,476.85H219.32V424.32Zm35,144.77C302,573.73,291.91,576,278.09,576H219.32V518.79h59.47c8.24,0,15.3,1,21.12,3.12s10.3,5.12,13.35,9.29,4.53,9.47,4.53,16Q317.79,562.2,308.32,569.09Z"/><path class="cls-2" d="M508.93,625.64q-27.36,0-49.79-9.66a117.33,117.33,0,0,1-38.84-26.81A120.52,120.52,0,0,1,395,549.06,134.67,134.67,0,0,1,386,499.82,133.16,133.16,0,0,1,395,450.77a121,121,0,0,1,25.35-39.94A117.6,117.6,0,0,1,459.14,384q22.42-9.66,49.79-9.67t50,9.67a115.18,115.18,0,0,1,38.84,26.8,122.66,122.66,0,0,1,25.17,39.94,133.37,133.37,0,0,1,8.93,49.05,134.88,134.88,0,0,1-8.93,49.24,122.17,122.17,0,0,1-25.17,40.11A114.92,114.92,0,0,1,558.89,616Q536.27,625.64,508.93,625.64Zm0-50.69q22.59,0,37.74-9.67a58.92,58.92,0,0,0,22.61-26.8q7.47-17.15,7.48-38.66,0-21.88-7.48-38.84a59.15,59.15,0,0,0-22.61-26.63q-15.13-9.64-37.74-9.66-22.26,0-37.39,9.66A60.21,60.21,0,0,0,448.75,461q-7.67,17-7.66,38.84,0,21.52,7.66,38.66a60,60,0,0,0,22.79,26.8Q486.67,575,508.93,575Z"/><polygon class="cls-2" points="708.03 424.32 708.03 484.85 811.97 484.85 811.97 531.2 708.03 531.2 708.03 622.38 655.91 622.38 655.91 378.03 832.79 378.03 832.79 424.32 708.03 424.32"/></svg>