<svg width="495" height="53" viewBox="0 0 495 53" fill="none" xmlns="http://www.w3.org/2000/svg">
<path d="M33.34 26.0975C32.2812 24.4187 30.7105 23.125 28.86 22.4075C26.1787 21.3803 23.3313 20.8549 20.46 20.8575C22.046 20.7792 23.6221 20.5617 25.17 20.2075C26.61 19.8908 27.9905 19.3474 29.26 18.5975C30.4491 17.8804 31.4394 16.8764 32.14 15.6775C32.9056 14.3081 33.2825 12.7555 33.23 11.1875C33.2538 9.32957 32.8066 7.49587 31.93 5.85752C30.9936 4.1782 29.5471 2.84034 27.8 2.03752C25.4705 1.01961 22.9401 0.54431 20.4 0.647517H0V42.1875H20.15C22.7641 42.2415 25.3693 41.8631 27.86 41.0675C29.8698 40.4549 31.6453 39.2445 32.95 37.5975C34.2283 35.7685 34.8616 33.5661 34.75 31.3375C34.7633 29.4954 34.2759 27.6842 33.34 26.0975ZM18.03 8.51752C19.0794 8.4994 20.1252 8.64446 21.13 8.94752C21.9263 9.19437 22.6255 9.68384 23.13 10.3475C23.6557 11.146 23.9083 12.0933 23.85 13.0475C23.8966 13.9598 23.6437 14.8622 23.13 15.6175C22.6255 16.2812 21.9263 16.7707 21.13 17.0175C20.159 17.3185 19.1464 17.4636 18.13 17.4475H8.86V8.51752H18.03ZM24.03 33.1375C22.96 33.9175 21.24 34.3075 18.89 34.3075H8.86V24.5775H18.96C20.1812 24.5518 21.398 24.7309 22.56 25.1075C23.4703 25.3863 24.2732 25.9378 24.86 26.6875C25.4009 27.4885 25.6708 28.4418 25.63 29.4075C25.6852 30.1172 25.5634 30.8296 25.2754 31.4806C24.9874 32.1316 24.5423 32.701 23.98 33.1375H24.03Z" fill="#1F1A14"/>
<path d="M54.98 30.5275V34.2775C55.05 34.0175 55.12 33.7575 55.17 33.5075L54.98 30.5275ZM54.98 30.5275V34.2775C55.05 34.0175 55.12 33.7575 55.17 33.5075L54.98 30.5275Z" fill="#1F1A14"/>
<path d="M66.45 35.1175V42.1875H61.24C60.2141 42.1863 59.1972 41.9965 58.24 41.6275C57.2779 41.2757 56.4471 40.6369 55.86 39.7975C55.2103 38.772 54.8958 37.5698 54.96 36.3575V34.2775C55.03 34.0175 55.1 33.7575 55.15 33.5075L54.96 30.5075V28.3975L48.51 31.0875C47.5913 31.417 46.7406 31.9118 46 32.5475C45.7809 32.7491 45.605 32.9931 45.483 33.2647C45.3609 33.5363 45.2953 33.8298 45.29 34.1275C45.2802 34.4422 45.3449 34.7547 45.4787 35.0397C45.6125 35.3247 45.8116 35.574 46.06 35.7675C46.7541 36.2071 47.5703 36.4138 48.39 36.3575C49.3352 36.3715 50.2768 36.2366 51.18 35.9575C51.9461 35.7238 52.6547 35.332 53.26 34.8075C53.8119 34.3094 54.2458 33.6945 54.53 33.0075C54.8343 32.217 54.9804 31.3744 54.96 30.5275V34.2775C54.6344 35.4566 54.1887 36.5993 53.63 37.6875C52.8817 39.1408 51.7986 40.3953 50.47 41.3475C48.889 42.4162 47.0066 42.949 45.1 42.8675C43.0141 42.9585 40.9665 42.2866 39.34 40.9775C38.5716 40.2818 37.9708 39.4209 37.5828 38.4597C37.1949 37.4984 37.0298 36.4617 37.1 35.4275C37.0577 34.3901 37.2324 33.3553 37.613 32.3893C37.9935 31.4233 38.5715 30.5473 39.31 29.8175C41.1782 28.1531 43.3858 26.9145 45.78 26.1875L55.08 22.7075C54.9726 21.8598 54.7009 21.0412 54.28 20.2975C53.66 19.2975 52.28 18.7475 50.28 18.7475C48.3812 18.7379 46.5153 19.2424 44.88 20.2075C43.2627 21.1486 41.8676 22.4277 40.79 23.9575L36.33 17.5075C37.409 16.3184 38.6396 15.2762 39.99 14.4075C41.5221 13.4171 43.1803 12.6368 44.92 12.0875C46.8593 11.4701 48.8848 11.1663 50.92 11.1875C54.76 11.1875 57.76 12.1875 59.92 14.1875C62.05 16.1875 63.11 19.0975 63.11 22.9075V33.2775C63.0627 33.7779 63.2055 34.2777 63.51 34.6775C63.6748 34.8216 63.8668 34.9312 64.0746 34.9999C64.2824 35.0686 64.5018 35.095 64.72 35.0775L66.45 35.1175Z" fill="#1F1A14"/>
<path d="M83.13 42.7975C80.3119 42.8723 77.5262 42.1811 75.07 40.7975C72.8075 39.4674 70.9695 37.5219 69.77 35.1875C68.5261 32.6329 67.8796 29.8288 67.8796 26.9875C67.8796 24.1462 68.5261 21.3421 69.77 18.7875C70.9763 16.4658 72.8134 14.5316 75.07 13.2075C77.5262 11.8239 80.3119 11.1327 83.13 11.2075C86.3708 11.0912 89.5636 12.0164 92.24 13.8475C94.5493 15.4513 96.2979 17.7385 97.24 20.3875L89.86 24.6375C89.6382 22.9978 88.9432 21.4583 87.86 20.2075C87.2845 19.6376 86.5949 19.196 85.8366 18.9116C85.0783 18.6272 84.2683 18.5065 83.46 18.5575C82.2363 18.5299 81.0334 18.8773 80.0128 19.5529C78.9922 20.2286 78.2026 21.2002 77.75 22.3375C77.1749 23.8184 76.9028 25.3996 76.95 26.9875C76.9047 28.585 77.1766 30.1757 77.75 31.6675C78.2045 32.8266 79.0083 33.8157 80.05 34.4975C81.0746 35.1265 82.2579 35.4492 83.46 35.4275C84.2658 35.4786 85.0733 35.3609 85.831 35.0819C86.5887 34.803 87.2797 34.3689 87.86 33.8075C88.9545 32.5523 89.6508 30.9997 89.86 29.3475L97.23 33.6275C96.2879 36.2765 94.5393 38.5637 92.23 40.1675C89.5551 41.993 86.3663 42.9146 83.13 42.7975Z" fill="#1F1A14"/>
<path d="M119.15 23.9475L130.99 42.1875H120.89L113.22 29.1975L109.04 33.5675V42.1875H100.18V0.647507H109.04V17.1375L108.61 25.0675L114.19 18.3775L120.58 11.8075H131.05L119.15 23.9475Z" fill="#1F1A14"/>
<path d="M153.5 42.7375C150.594 42.7738 147.712 42.2157 145.03 41.0975C142.545 40.0388 140.299 38.4877 138.43 36.5375C136.556 34.5719 135.091 32.2538 134.12 29.7175C132.093 24.3319 132.093 18.3931 134.12 13.0075C135.101 10.4852 136.565 8.17874 138.43 6.21751C140.299 4.26948 142.545 2.7215 145.03 1.66751C150.481 -0.542876 156.579 -0.542876 162.03 1.66751C164.524 2.71131 166.775 4.26054 168.64 6.21751C170.468 8.18974 171.901 10.4948 172.86 13.0075C174.887 18.3931 174.887 24.3319 172.86 29.7175C171.896 32.2478 170.445 34.5647 168.59 36.5375C166.725 38.4974 164.474 40.05 161.98 41.0975C159.294 42.2132 156.409 42.7712 153.5 42.7375ZM153.5 34.1175C155.753 34.2015 157.983 33.6319 159.92 32.4775C161.634 31.3833 162.973 29.7926 163.76 27.9175C165.453 23.6907 165.453 18.9743 163.76 14.7475C162.961 12.8878 161.624 11.31 159.92 10.2175C157.981 9.06731 155.753 8.49809 153.5 8.57751C151.267 8.50345 149.059 9.07271 147.14 10.2175C145.433 11.3142 144.087 12.8899 143.27 14.7475C141.537 18.9665 141.537 23.6986 143.27 27.9175C144.074 29.7907 145.423 31.3793 147.14 32.4775C149.057 33.6271 151.266 34.1967 153.5 34.1175Z" fill="#1F1A14"/>
<path d="M208.32 10.0675V11.8075H215.95V18.5675H208.32V42.1875H199.46V18.5675H189.46V42.1875H180.59V18.5675H176.37V11.8075H180.59V11.0575C180.541 9.05663 180.977 7.07358 181.86 5.27752C182.693 3.63735 183.999 2.28548 185.61 1.39752C187.503 0.413281 189.618 -0.0655071 191.75 0.0075157C193.529 -0.0475304 195.299 0.294057 196.93 1.00752C198.075 1.51397 199.147 2.16966 200.12 2.95752L197.12 9.28752C196.57 8.5773 195.892 7.97686 195.12 7.51751C194.332 7.04555 193.429 6.7999 192.51 6.80752C192.091 6.77419 191.67 6.83103 191.275 6.97421C190.88 7.11738 190.52 7.34357 190.22 7.63752C189.685 8.31445 189.421 9.16655 189.48 10.0275V11.7675H199.48V11.0175C199.431 9.03171 199.86 7.06324 200.73 5.27752C201.563 3.63735 202.869 2.28548 204.48 1.39752C206.372 0.411993 208.488 -0.0668727 210.62 0.0075157C212.396 -0.0487318 214.163 0.292938 215.79 1.00752C216.938 1.51423 218.014 2.16987 218.99 2.95752L215.99 9.28752C215.44 8.5773 214.762 7.97686 213.99 7.51751C213.202 7.04555 212.299 6.7999 211.38 6.80752C210.961 6.77353 210.54 6.83006 210.145 6.97327C209.75 7.11648 209.39 7.34303 209.09 7.63752C208.535 8.32098 208.26 9.18928 208.32 10.0675Z" fill="#1F1A14"/>
<path d="M228.08 8.20751H219.22V0.637512H228.08V8.20751ZM228.08 42.2075H219.22V11.7975H228.08V42.2075Z" fill="#1F1A14"/>
<path d="M246.93 42.7975C244.112 42.8723 241.326 42.1811 238.87 40.7975C236.607 39.4674 234.769 37.5219 233.57 35.1875C232.326 32.633 231.68 29.8289 231.68 26.9875C231.68 24.1462 232.326 21.3421 233.57 18.7875C234.776 16.4658 236.613 14.5316 238.87 13.2075C241.326 11.8239 244.112 11.1327 246.93 11.2075C250.171 11.0898 253.364 12.0151 256.04 13.8475C258.352 15.4484 260.101 17.7366 261.04 20.3875L253.67 24.6675C253.439 23.021 252.725 21.4797 251.62 20.2375C251.045 19.6676 250.355 19.226 249.597 18.9416C248.838 18.6572 248.028 18.5366 247.22 18.5875C245.996 18.5519 244.791 18.8961 243.77 19.573C242.75 20.2498 241.963 21.226 241.52 22.3675C240.936 23.8462 240.661 25.4285 240.71 27.0175C240.663 28.6161 240.938 30.2078 241.52 31.6975C241.985 32.8547 242.804 33.8349 243.86 34.4975C244.885 35.1266 246.068 35.4493 247.27 35.4275C248.076 35.4786 248.883 35.3609 249.641 35.082C250.399 34.803 251.09 34.3689 251.67 33.8075C252.786 32.5608 253.501 31.0065 253.72 29.3475L261.09 33.6275C260.151 36.2785 258.402 38.5667 256.09 40.1675C253.399 42.0067 250.187 42.929 246.93 42.7975Z" fill="#1F1A14"/>
<path d="M289.59 18.2775C288.526 16.1011 286.842 14.2883 284.75 13.0675C282.287 11.7099 279.501 11.0463 276.69 11.1475C273.973 11.0959 271.293 11.7874 268.94 13.1475C266.711 14.4647 264.904 16.3899 263.73 18.6975C262.505 21.2789 261.87 24.1003 261.87 26.9575C261.87 29.8147 262.505 32.6361 263.73 35.2175C264.924 37.5679 266.789 39.5103 269.09 40.7975C271.647 42.1832 274.523 42.8729 277.43 42.7975C280.333 42.9267 283.216 42.2629 285.77 40.8775C287.68 39.7882 289.339 38.3096 290.64 36.5375L285.25 31.1375C284.876 32.0001 284.351 32.7891 283.7 33.4675C283 34.1705 282.153 34.7101 281.22 35.0475C280.042 35.4476 278.803 35.6372 277.56 35.6075C276.219 35.631 274.891 35.3435 273.68 34.7675C272.568 34.2282 271.649 33.3586 271.05 32.2775C270.573 31.3607 270.284 30.3577 270.2 29.3275H290.86C290.963 28.7855 291.033 28.2379 291.07 27.6875C291.14 26.9675 291.17 26.2675 291.17 25.6075C291.22 23.0746 290.679 20.5648 289.59 18.2775ZM270.19 24.1675C270.258 22.5985 270.846 21.0966 271.86 19.8975C272.491 19.2546 273.252 18.7535 274.091 18.4276C274.931 18.1017 275.831 17.9585 276.73 18.0075C277.636 17.9377 278.546 18.0712 279.394 18.3982C280.242 18.7252 281.006 19.2374 281.63 19.8975C282.594 21.1314 283.138 22.642 283.18 24.2075L270.19 24.1675Z" fill="#1F1A14"/>
<path d="M303.16 6.84751V19.6175H321.2V25.8175H303.16V42.1875H296.16V0.647507H324.99V6.84751H303.16Z" fill="#6F665A"/>
<path d="M342.91 30.5875V34.2775C342.98 34.0075 343.04 33.7475 343.09 33.4875L342.91 30.5875ZM342.91 30.5875V34.2775C342.98 34.0075 343.04 33.7475 343.09 33.4875L342.91 30.5875Z" fill="#6F665A"/>
<path d="M353.01 36.2775V42.2775H348.67C347.692 42.2861 346.722 42.0956 345.82 41.7175C344.944 41.3409 344.207 40.7014 343.71 39.8875C343.123 38.8396 342.846 37.6468 342.91 36.4475V34.2775C342.98 34.0075 343.04 33.7475 343.09 33.4875L342.91 30.5675V27.3775L335.22 30.8375C334.178 31.2339 333.221 31.8244 332.4 32.5775C331.866 33.1068 331.564 33.826 331.56 34.5775C331.55 34.9571 331.625 35.3342 331.781 35.6806C331.937 36.0269 332.169 36.3335 332.46 36.5775C333.29 37.1353 334.283 37.3961 335.28 37.3175C336.344 37.3344 337.402 37.1687 338.41 36.8275C339.299 36.5207 340.121 36.0453 340.83 35.4275C341.503 34.8415 342.033 34.1095 342.38 33.2875C342.745 32.4035 342.926 31.454 342.91 30.4975V34.2775C342.602 35.4715 342.141 36.621 341.54 37.6975C340.746 39.1605 339.606 40.4068 338.22 41.3275C336.604 42.3542 334.713 42.8636 332.8 42.7875C330.675 42.9075 328.582 42.222 326.94 40.8675C326.224 40.2082 325.662 39.4 325.292 38.4999C324.922 37.5997 324.754 36.6295 324.8 35.6575C324.766 34.6762 324.936 33.6985 325.299 32.7863C325.663 31.874 326.211 31.047 326.91 30.3575C328.59 28.7977 330.575 27.6026 332.74 26.8475L342.86 22.6075C342.755 21.4275 342.379 20.2877 341.76 19.2775C340.993 18.0975 339.433 17.5075 337.08 17.5075C335.187 17.4683 333.327 18.0091 331.75 19.0575C330.239 20.0741 329.002 21.4481 328.15 23.0575L324 18.0575C324.887 16.8692 325.942 15.815 327.13 14.9275C328.536 13.8572 330.093 13.0012 331.75 12.3875C333.671 11.6845 335.705 11.3454 337.75 11.3875C341.47 11.3875 344.35 12.3875 346.4 14.4575C348.45 16.5275 349.47 19.3875 349.47 23.1075V34.4375C349.417 34.9353 349.561 35.434 349.87 35.8275C350.034 35.9733 350.226 36.0848 350.433 36.1552C350.641 36.2256 350.861 36.2536 351.08 36.2375L353.01 36.2775Z" fill="#6F665A"/>
<path d="M370.06 42.7975C367.323 42.856 364.622 42.1644 362.25 40.7975C360.053 39.4918 358.284 37.5734 357.16 35.2775C355.98 32.6889 355.37 29.8773 355.37 27.0325C355.37 24.1877 355.98 21.3761 357.16 18.7875C358.307 16.5158 360.071 14.6132 362.25 13.2975C364.619 11.9229 367.322 11.2307 370.06 11.2975C373.367 11.1536 376.622 12.1608 379.27 14.1475C381.576 15.9524 383.238 18.4528 384.01 21.2775L377.75 24.3775C377.513 22.4507 376.729 20.6321 375.49 19.1375C374.805 18.4359 373.975 17.8932 373.057 17.5476C372.14 17.2021 371.158 17.0621 370.18 17.1375C368.725 17.0779 367.289 17.4802 366.076 18.2867C364.864 19.0932 363.937 20.2626 363.43 21.6275C362.763 23.3581 362.447 25.2038 362.5 27.0575C362.45 28.8883 362.766 30.7105 363.43 32.4175C363.94 33.7817 364.866 34.9506 366.078 35.7584C367.289 36.5662 368.725 36.9718 370.18 36.9175C371.157 36.9923 372.139 36.8519 373.057 36.5064C373.974 36.1609 374.805 35.6185 375.49 34.9175C376.73 33.4238 377.515 31.6048 377.75 29.6775L384.01 32.7775C383.238 35.6022 381.576 38.1026 379.27 39.9075C376.627 41.9085 373.372 42.9299 370.06 42.7975Z" fill="#6F665A"/>
<path d="M407.57 38.8975C406.713 40.0158 405.625 40.9366 404.38 41.5975C402.694 42.4978 400.8 42.936 398.89 42.8675C397.198 42.9176 395.521 42.532 394.02 41.7475C392.707 41.0347 391.637 39.9444 390.95 38.6175C390.212 37.1693 389.838 35.5629 389.86 33.9375V17.3875H385.15V11.9875H389.86V8.3375L396.86 3.92751V11.9875H406.1V17.3875H396.86V32.2775C396.86 33.8875 397.21 34.9675 397.86 35.5275C398.59 36.1042 399.501 36.402 400.43 36.3675C401.546 36.3823 402.623 35.9586 403.43 35.1875C404.218 34.4791 404.877 33.6402 405.38 32.7075L407.57 38.8975Z" fill="#6F665A"/>
<path d="M421.77 42.7975C419.083 42.8378 416.435 42.1465 414.11 40.7975C411.896 39.4971 410.109 37.5786 408.97 35.2775C407.765 32.696 407.14 29.8816 407.14 27.0325C407.14 24.1835 407.765 21.3691 408.97 18.7875C410.133 16.5108 411.915 14.608 414.11 13.2975C416.431 11.94 419.081 11.2481 421.77 11.2975C424.478 11.2458 427.148 11.9375 429.49 13.2975C431.687 14.6153 433.476 16.5155 434.66 18.7875C435.885 21.3635 436.52 24.1801 436.52 27.0325C436.52 29.8849 435.885 32.7015 434.66 35.2775C433.5 37.5741 431.706 39.4899 429.49 40.7975C427.144 42.1486 424.477 42.8397 421.77 42.7975ZM421.83 37.0375C423.237 37.0718 424.625 36.704 425.83 35.9775C427.034 35.1984 427.964 34.062 428.49 32.7275C429.204 30.9459 429.545 29.0363 429.49 27.1175C429.556 25.1655 429.215 23.221 428.49 21.4075C427.964 20.0903 427.046 18.9664 425.86 18.1875C424.655 17.502 423.292 17.1415 421.905 17.1415C420.518 17.1415 419.155 17.502 417.95 18.1875C416.742 18.9571 415.802 20.082 415.26 21.4075C414.54 23.2225 414.2 25.1659 414.26 27.1175C414.209 29.036 414.549 30.9448 415.26 32.7275C415.793 34.0665 416.734 35.2036 417.95 35.9775C419.128 36.6912 420.483 37.0585 421.86 37.0375H421.83Z" fill="#6F665A"/>
<path d="M464.3 18.3775C464.324 19.6238 464.165 20.8669 463.83 22.0675C463.631 22.8558 463.332 23.6153 462.94 24.3275H455.86C456.406 23.7262 456.839 23.0319 457.14 22.2775C457.519 21.452 457.72 20.5559 457.73 19.6475C457.748 18.883 457.52 18.1328 457.08 17.5075C456.814 17.1895 456.475 16.9412 456.092 16.7843C455.708 16.6274 455.292 16.5667 454.88 16.6075C453.685 16.6173 452.532 17.0455 451.62 17.8175C450.552 18.6974 449.703 19.8134 449.14 21.0775C448.474 22.4909 448.133 24.0352 448.14 25.5975V42.2175H441.2V11.9875H448.14V20.6475C448.299 19.9703 448.496 19.3026 448.73 18.6475C449.175 17.3255 449.823 16.0806 450.65 14.9575C451.445 13.8768 452.47 12.9854 453.65 12.3475C454.896 11.6748 456.294 11.3307 457.71 11.3475C458.575 11.3187 459.438 11.4631 460.247 11.7722C461.055 12.0813 461.794 12.5489 462.42 13.1475C463.077 13.8423 463.584 14.6657 463.907 15.5658C464.231 16.4659 464.365 17.4232 464.3 18.3775Z" fill="#6F665A"/>
<path d="M494.8 11.9875L483.64 44.2775C482.57 47.2775 481.14 49.4675 479.37 50.6875C477.499 51.9347 475.288 52.5738 473.04 52.5175C471.68 52.5252 470.328 52.3055 469.04 51.8675C467.874 51.4741 466.778 50.9005 465.79 50.1675C464.931 49.5326 464.166 48.7784 463.52 47.9275L466.81 42.3475C467.538 43.4492 468.439 44.4252 469.48 45.2375C470.514 46.0112 471.779 46.4129 473.07 46.3775C474.157 46.4092 475.22 46.0549 476.07 45.3775C477.046 44.4411 477.739 43.2491 478.07 41.9375L478.62 40.2675H474.29L464.37 11.9275H471.99L477.45 29.0475L479.62 37.0475L481.79 29.0475L487.18 11.9275L494.8 11.9875Z" fill="#6F665A"/>
</svg>
