<svg width="170" height="170" viewBox="0 0 170 170" fill="none" xmlns="http://www.w3.org/2000/svg">
<path d="M146 0H24C10.7452 0 0 10.7452 0 24V146C0 159.255 10.7452 170 24 170H146C159.255 170 170 159.255 170 146V24C170 10.7452 159.255 0 146 0Z" fill="#F4EFE2"/>
<path d="M61.78 89.71C60.7192 88.0245 59.1453 86.724 57.29 86C54.6052 84.9729 51.7546 84.4475 48.88 84.45C50.4693 84.3717 52.0487 84.1542 53.6 83.8C55.0368 83.4833 56.4141 82.9398 57.68 82.19C58.872 81.4732 59.8655 80.4694 60.57 79.27C61.3321 77.8996 61.7056 76.3471 61.65 74.78C61.6708 72.9204 61.2274 71.085 60.36 69.44C59.416 67.7654 57.967 66.432 56.22 65.63C53.8944 64.6109 51.367 64.1355 48.83 64.24H28.42V105.8H48.58C51.1838 105.846 53.7777 105.468 56.26 104.68C58.2673 104.062 60.0414 102.853 61.35 101.21C62.6176 99.3948 63.2504 97.2118 63.15 95C63.1809 93.1451 62.7074 91.3167 61.78 89.71ZM46.46 72.13C47.5126 72.112 48.5617 72.257 49.57 72.56C50.3662 72.8069 51.0655 73.2963 51.57 73.96C52.0956 74.7585 52.3483 75.7058 52.29 76.66C52.3365 77.5723 52.0837 78.4747 51.57 79.23C51.0669 79.8929 50.3667 80.3795 49.57 80.62C48.6003 80.9279 47.5872 81.0765 46.57 81.06H37.27V72.13H46.46ZM52.46 96.74C51.39 97.53 49.67 97.92 47.32 97.92H37.32V88.19H47.4C48.615 88.1583 49.8263 88.3377 50.98 88.72C51.883 89.0024 52.6784 89.5536 53.26 90.3C53.7862 91.099 54.0453 92.0444 54 93C54.0632 93.7051 53.9522 94.415 53.6767 95.0672C53.4012 95.7193 52.9696 96.2938 52.42 96.74H52.46Z" fill="#1E3D32"/>
<path d="M86.52 106.36C83.6144 106.396 80.7321 105.838 78.05 104.72C75.5661 103.659 73.3214 102.108 71.45 100.16C69.5747 98.1954 68.1095 95.877 67.14 93.34C66.121 90.6782 65.6055 87.8502 65.62 85C65.598 82.1492 66.1137 79.3198 67.14 76.66C68.115 74.1347 69.5797 71.8271 71.45 69.87C73.3214 67.9222 75.5661 66.3713 78.05 65.31C83.5036 63.1122 89.5964 63.1122 95.05 65.31C97.5395 66.3612 99.786 67.9134 101.65 69.87C103.505 71.8335 104.958 74.1399 105.93 76.66C106.943 79.3224 107.445 82.1517 107.41 85C107.428 87.8602 106.913 90.6988 105.89 93.37C104.923 95.9016 103.469 98.2187 101.61 100.19C99.746 102.147 97.4995 103.699 95.01 104.75C92.3184 105.857 89.4299 106.405 86.52 106.36ZM86.52 97.74C88.7699 97.8209 90.9954 97.2515 92.93 96.1C94.645 95.0044 95.9874 93.4144 96.78 91.54C98.473 87.3132 98.473 82.5968 96.78 78.37C95.9856 76.5046 94.6429 74.9248 92.93 73.84C90.9738 72.7642 88.7775 72.2001 86.545 72.2001C84.3125 72.2001 82.1162 72.7642 80.16 73.84C78.4507 74.9344 77.104 76.5108 76.29 78.37C74.5569 82.589 74.5569 87.3211 76.29 91.54C77.1001 93.4096 78.447 94.9967 80.16 96.1C82.0784 97.2464 84.2865 97.8158 86.52 97.74Z" fill="#1E3D32"/>
<path d="M120.36 72.14V82.42H138.03V90.31H120.36V105.81H111.5V64.27H141.57V72.14H120.36Z" fill="#1E3D32"/>
</svg>
